<svg width="360" height="360" viewBox="0 0 360 360" fill="none" xmlns="http://www.w3.org/2000/svg"><g clip-path="url(#a)"><path fill="#202020" d="M-600-598h1920V482H-600z"/><rect x="75" y="15" width="270" height="270" rx="15" fill="#202020" stroke="#363636" stroke-width="30"/><rect x="15" y="75" width="270" height="270" rx="15" fill="#202020" stroke="#363636" stroke-width="30"/><path fill-rule="evenodd" clip-rule="evenodd" d="m117.844 202.736 84.853-84.853L360 275.186V360h-84.892z" fill="#202020"/><path fill-rule="evenodd" clip-rule="evenodd" d="m160.203 360-42.359-42.359 199.758-199.758L360 160.281v84.909L245.19 360z" fill="#202020"/><path d="m159.972 202.129 57.883 57.883-57.883 57.882 42.118 42.118 57.882-57.883 57.883 57.883 42.117-42.118-57.882-57.882 57.882-57.883-42.117-42.117-57.883 57.882-57.882-57.882z" fill="#363636"/><path fill="#202020" d="M239 338h40v22h-40zm99-63v-40h22v40z"/></g><defs><clipPath id="a"><path fill="#fff" d="M-600-598h1920V482H-600z"/></clipPath></defs></svg>