<svg width="700" height="700" viewBox="0 0 700 700" fill="none" xmlns="http://www.w3.org/2000/svg"><path fill-rule="evenodd" clip-rule="evenodd" d="M350 100c-81.144 0-150 68.744-150 157.407 0 80.339 59.385 154.612 150 203.318 90.615-48.706 150-122.979 150-203.318C500 168.744 431.144 100 350 100M100 257.407C100 116.975 210.23 0 350 0s250 116.975 250 257.407c0 142.638-110.306 248.916-228.753 304.52a50 50 0 0 1-42.494 0C210.306 506.323 100 400.045 100 257.407m29.785 162.132c16.823 21.898 12.709 53.288-9.189 70.111C101.51 504.313 100 514.069 100 516.667c0 2.139.767 7.943 9.795 17.429 9.273 9.744 25.054 20.793 48.38 31.161C204.7 585.935 272.479 600 350 600c77.522 0 145.3-14.065 191.825-34.743 23.326-10.367 39.107-21.417 48.38-31.161 9.027-9.486 9.795-15.289 9.795-17.429 0-2.598-1.51-12.354-20.596-27.018-21.897-16.824-26.01-48.214-9.186-70.112s48.214-26.01 70.111-9.186C672.29 434.907 700 470.691 700 516.667c0 34.678-16.022 63.95-37.356 86.368-21.088 22.159-49.241 39.841-80.204 53.603C520.386 684.217 438.165 700 350 700s-170.386-15.783-232.439-43.362c-30.964-13.762-59.116-31.444-80.205-53.603C16.022 580.618 0 551.345 0 516.667c0-45.976 27.708-81.76 59.674-106.317 21.898-16.823 53.288-12.709 70.111 9.189" fill="#202020"/><path fill-rule="evenodd" clip-rule="evenodd" d="M350 516.667c110.457-51.854 200-144.71 200-259.26C550 142.859 460.457 50 350 50s-200 92.859-200 207.407c0 114.55 89.543 207.406 200 259.26M350 350c55.228 0 100-44.772 100-100s-44.772-100-100-100-100 44.772-100 100 44.772 100 100 100" fill="#202020"/></svg>