<svg width="1563" height="460" viewBox="0 0 1563 460" fill="none" xmlns="http://www.w3.org/2000/svg">
<rect x="97.012" y="20" width="300.059" height="300" rx="50" fill="#505050"/>
<g filter="url(#filter0_d_90_7)">
<rect x="37" y="80" width="300.059" height="300" rx="50" fill="#BBBBBB" fill-opacity="0.3" shape-rendering="crispEdges"/>
</g>
<g filter="url(#filter1_d_90_7)">
<ellipse cx="217.035" cy="290" rx="90.0177" ry="90" fill="url(#paint0_linear_90_7)"/>
</g>
<path d="M541.57 288L482.57 210.5V288H439.82V112.5H482.57V189.5L541.07 112.5H591.32L523.32 198.5L593.82 288H541.57ZM745.636 216C745.636 220 745.386 224.167 744.886 228.5H648.136C648.803 237.167 651.553 243.833 656.386 248.5C661.386 253 667.47 255.25 674.636 255.25C685.303 255.25 692.72 250.75 696.886 241.75H742.386C740.053 250.917 735.803 259.167 729.636 266.5C723.636 273.833 716.053 279.583 706.886 283.75C697.72 287.917 687.47 290 676.136 290C662.47 290 650.303 287.083 639.636 281.25C628.97 275.417 620.636 267.083 614.636 256.25C608.636 245.417 605.636 232.75 605.636 218.25C605.636 203.75 608.553 191.083 614.386 180.25C620.386 169.417 628.72 161.083 639.386 155.25C650.053 149.417 662.303 146.5 676.136 146.5C689.636 146.5 701.636 149.333 712.136 155C722.636 160.667 730.803 168.75 736.636 179.25C742.636 189.75 745.636 202 745.636 216ZM701.886 204.75C701.886 197.417 699.386 191.583 694.386 187.25C689.386 182.917 683.136 180.75 675.636 180.75C668.47 180.75 662.386 182.833 657.386 187C652.553 191.167 649.553 197.083 648.386 204.75H701.886ZM899.689 216C899.689 220 899.439 224.167 898.939 228.5H802.189C802.856 237.167 805.606 243.833 810.439 248.5C815.439 253 821.523 255.25 828.689 255.25C839.356 255.25 846.773 250.75 850.939 241.75H896.439C894.106 250.917 889.856 259.167 883.689 266.5C877.689 273.833 870.106 279.583 860.939 283.75C851.773 287.917 841.523 290 830.189 290C816.523 290 804.356 287.083 793.689 281.25C783.023 275.417 774.689 267.083 768.689 256.25C762.689 245.417 759.689 232.75 759.689 218.25C759.689 203.75 762.606 191.083 768.439 180.25C774.439 169.417 782.773 161.083 793.439 155.25C804.106 149.417 816.356 146.5 830.189 146.5C843.689 146.5 855.689 149.333 866.189 155C876.689 160.667 884.856 168.75 890.689 179.25C896.689 189.75 899.689 202 899.689 216ZM855.939 204.75C855.939 197.417 853.439 191.583 848.439 187.25C843.439 182.917 837.189 180.75 829.689 180.75C822.523 180.75 816.439 182.833 811.439 187C806.606 191.167 803.606 197.083 802.439 204.75H855.939ZM964.992 168.25C969.159 161.75 974.909 156.5 982.242 152.5C989.575 148.5 998.159 146.5 1007.99 146.5C1019.49 146.5 1029.91 149.417 1039.24 155.25C1048.58 161.083 1055.91 169.417 1061.24 180.25C1066.74 191.083 1069.49 203.667 1069.49 218C1069.49 232.333 1066.74 245 1061.24 256C1055.91 266.833 1048.58 275.25 1039.24 281.25C1029.91 287.083 1019.49 290 1007.99 290C998.325 290 989.742 288 982.242 284C974.909 280 969.159 274.833 964.992 268.5V354.5H922.242V148.5H964.992V168.25ZM1025.99 218C1025.99 207.333 1022.99 199 1016.99 193C1011.16 186.833 1003.91 183.75 995.242 183.75C986.742 183.75 979.492 186.833 973.492 193C967.659 199.167 964.742 207.583 964.742 218.25C964.742 228.917 967.659 237.333 973.492 243.5C979.492 249.667 986.742 252.75 995.242 252.75C1003.74 252.75 1010.99 249.667 1016.99 243.5C1022.99 237.167 1025.99 228.667 1025.99 218ZM1169.67 251.75V288H1147.92C1132.42 288 1120.34 284.25 1111.67 276.75C1103 269.083 1098.67 256.667 1098.67 239.5V184H1081.67V148.5H1098.67V114.5H1141.42V148.5H1169.42V184H1141.42V240C1141.42 244.167 1142.42 247.167 1144.42 249C1146.42 250.833 1149.75 251.75 1154.42 251.75H1169.67ZM1214.98 134C1207.48 134 1201.32 131.833 1196.48 127.5C1191.82 123 1189.48 117.5 1189.48 111C1189.48 104.333 1191.82 98.8333 1196.48 94.5C1201.32 90 1207.48 87.75 1214.98 87.75C1222.32 87.75 1228.32 90 1232.98 94.5C1237.82 98.8333 1240.23 104.333 1240.23 111C1240.23 117.5 1237.82 123 1232.98 127.5C1228.32 131.833 1222.32 134 1214.98 134ZM1236.23 148.5V288H1193.48V148.5H1236.23ZM1329.96 248L1360.21 148.5H1405.71L1356.21 288H1303.46L1253.96 148.5H1299.71L1329.96 248ZM1555.21 216C1555.21 220 1554.96 224.167 1554.46 228.5H1457.71C1458.37 237.167 1461.12 243.833 1465.96 248.5C1470.96 253 1477.04 255.25 1484.21 255.25C1494.87 255.25 1502.29 250.75 1506.46 241.75H1551.96C1549.62 250.917 1545.37 259.167 1539.21 266.5C1533.21 273.833 1525.62 279.583 1516.46 283.75C1507.29 287.917 1497.04 290 1485.71 290C1472.04 290 1459.87 287.083 1449.21 281.25C1438.54 275.417 1430.21 267.083 1424.21 256.25C1418.21 245.417 1415.21 232.75 1415.21 218.25C1415.21 203.75 1418.12 191.083 1423.96 180.25C1429.96 169.417 1438.29 161.083 1448.96 155.25C1459.62 149.417 1471.87 146.5 1485.71 146.5C1499.21 146.5 1511.21 149.333 1521.71 155C1532.21 160.667 1540.37 168.75 1546.21 179.25C1552.21 189.75 1555.21 202 1555.21 216ZM1511.46 204.75C1511.46 197.417 1508.96 191.583 1503.96 187.25C1498.96 182.917 1492.71 180.75 1485.21 180.75C1478.04 180.75 1471.96 182.833 1466.96 187C1462.12 191.167 1459.12 197.083 1457.96 204.75H1511.46Z" fill="#606060"/>
<defs>
<filter id="filter0_d_90_7" x="-3" y="0" width="420.059" height="420" filterUnits="userSpaceOnUse" color-interpolation-filters="sRGB">
<feFlood flood-opacity="0" result="BackgroundImageFix"/>
<feColorMatrix in="SourceAlpha" type="matrix" values="0 0 0 0 0 0 0 0 0 0 0 0 0 0 0 0 0 0 127 0" result="hardAlpha"/>
<feMorphology radius="20" operator="erode" in="SourceAlpha" result="effect1_dropShadow_90_7"/>
<feOffset dx="20" dy="-20"/>
<feGaussianBlur stdDeviation="40"/>
<feComposite in2="hardAlpha" operator="out"/>
<feColorMatrix type="matrix" values="0 0 0 0 0 0 0 0 0 0 0 0 0 0 0 0 0 0 0.25 0"/>
<feBlend mode="normal" in2="BackgroundImageFix" result="effect1_dropShadow_90_7"/>
<feBlend mode="normal" in="SourceGraphic" in2="effect1_dropShadow_90_7" result="shape"/>
</filter>
<filter id="filter1_d_90_7" x="37.0177" y="100" width="360.035" height="360" filterUnits="userSpaceOnUse" color-interpolation-filters="sRGB">
<feFlood flood-opacity="0" result="BackgroundImageFix"/>
<feColorMatrix in="SourceAlpha" type="matrix" values="0 0 0 0 0 0 0 0 0 0 0 0 0 0 0 0 0 0 127 0" result="hardAlpha"/>
<feMorphology radius="10" operator="dilate" in="SourceAlpha" result="effect1_dropShadow_90_7"/>
<feOffset dy="-10"/>
<feGaussianBlur stdDeviation="40"/>
<feComposite in2="hardAlpha" operator="out"/>
<feColorMatrix type="matrix" values="0 0 0 0 0 0 0 0 0 0 0 0 0 0 0 0 0 0 0.25 0"/>
<feBlend mode="normal" in2="BackgroundImageFix" result="effect1_dropShadow_90_7"/>
<feBlend mode="normal" in="SourceGraphic" in2="effect1_dropShadow_90_7" result="shape"/>
</filter>
<linearGradient id="paint0_linear_90_7" x1="268.621" y1="200" x2="165.48" y2="380.018" gradientUnits="userSpaceOnUse">
<stop stop-color="#00FF0A"/>
<stop offset="0.8" stop-color="#00FFC2"/>
</linearGradient>
</defs>
</svg>