<svg width="1566" height="460" viewBox="0 0 1566 460" fill="none" xmlns="http://www.w3.org/2000/svg">
<rect x="100.012" y="20" width="300.059" height="300" rx="50" fill="#505050"/>
<g filter="url(#filter0_d_647_46)">
<rect x="40" y="80" width="300.059" height="300" rx="50" fill="#BBBBBB" fill-opacity="0.3" shape-rendering="crispEdges"/>
</g>
<g filter="url(#filter1_d_647_46)">
<ellipse cx="220.035" cy="290" rx="90.0177" ry="90" fill="url(#paint0_linear_647_46)"/>
</g>
<path d="M544.57 288L485.57 210.5V288H442.82V112.5H485.57V189.5L544.07 112.5H594.32L526.32 198.5L596.82 288H544.57ZM748.636 216C748.636 220 748.386 224.167 747.886 228.5H651.136C651.803 237.167 654.553 243.833 659.386 248.5C664.386 253 670.47 255.25 677.636 255.25C688.303 255.25 695.72 250.75 699.886 241.75H745.386C743.053 250.917 738.803 259.167 732.636 266.5C726.636 273.833 719.053 279.583 709.886 283.75C700.72 287.917 690.47 290 679.136 290C665.47 290 653.303 287.083 642.636 281.25C631.97 275.417 623.636 267.083 617.636 256.25C611.636 245.417 608.636 232.75 608.636 218.25C608.636 203.75 611.553 191.083 617.386 180.25C623.386 169.417 631.72 161.083 642.386 155.25C653.053 149.417 665.303 146.5 679.136 146.5C692.636 146.5 704.636 149.333 715.136 155C725.636 160.667 733.803 168.75 739.636 179.25C745.636 189.75 748.636 202 748.636 216ZM704.886 204.75C704.886 197.417 702.386 191.583 697.386 187.25C692.386 182.917 686.136 180.75 678.636 180.75C671.47 180.75 665.386 182.833 660.386 187C655.553 191.167 652.553 197.083 651.386 204.75H704.886ZM902.689 216C902.689 220 902.439 224.167 901.939 228.5H805.189C805.856 237.167 808.606 243.833 813.439 248.5C818.439 253 824.522 255.25 831.689 255.25C842.356 255.25 849.772 250.75 853.939 241.75H899.439C897.106 250.917 892.856 259.167 886.689 266.5C880.689 273.833 873.106 279.583 863.939 283.75C854.772 287.917 844.522 290 833.189 290C819.522 290 807.356 287.083 796.689 281.25C786.022 275.417 777.689 267.083 771.689 256.25C765.689 245.417 762.689 232.75 762.689 218.25C762.689 203.75 765.606 191.083 771.439 180.25C777.439 169.417 785.772 161.083 796.439 155.25C807.106 149.417 819.356 146.5 833.189 146.5C846.689 146.5 858.689 149.333 869.189 155C879.689 160.667 887.856 168.75 893.689 179.25C899.689 189.75 902.689 202 902.689 216ZM858.939 204.75C858.939 197.417 856.439 191.583 851.439 187.25C846.439 182.917 840.189 180.75 832.689 180.75C825.522 180.75 819.439 182.833 814.439 187C809.606 191.167 806.606 197.083 805.439 204.75H858.939ZM967.992 168.25C972.159 161.75 977.909 156.5 985.242 152.5C992.575 148.5 1001.16 146.5 1010.99 146.5C1022.49 146.5 1032.91 149.417 1042.24 155.25C1051.58 161.083 1058.91 169.417 1064.24 180.25C1069.74 191.083 1072.49 203.667 1072.49 218C1072.49 232.333 1069.74 245 1064.24 256C1058.91 266.833 1051.58 275.25 1042.24 281.25C1032.91 287.083 1022.49 290 1010.99 290C1001.33 290 992.742 288 985.242 284C977.909 280 972.159 274.833 967.992 268.5V354.5H925.242V148.5H967.992V168.25ZM1028.99 218C1028.99 207.333 1025.99 199 1019.99 193C1014.16 186.833 1006.91 183.75 998.242 183.75C989.742 183.75 982.492 186.833 976.492 193C970.659 199.167 967.742 207.583 967.742 218.25C967.742 228.917 970.659 237.333 976.492 243.5C982.492 249.667 989.742 252.75 998.242 252.75C1006.74 252.75 1013.99 249.667 1019.99 243.5C1025.99 237.167 1028.99 228.667 1028.99 218ZM1172.67 251.75V288H1150.92C1135.42 288 1123.34 284.25 1114.67 276.75C1106 269.083 1101.67 256.667 1101.67 239.5V184H1084.67V148.5H1101.67V114.5H1144.42V148.5H1172.42V184H1144.42V240C1144.42 244.167 1145.42 247.167 1147.42 249C1149.42 250.833 1152.75 251.75 1157.42 251.75H1172.67ZM1217.98 134C1210.48 134 1204.32 131.833 1199.48 127.5C1194.82 123 1192.48 117.5 1192.48 111C1192.48 104.333 1194.82 98.8333 1199.48 94.5C1204.32 90 1210.48 87.75 1217.98 87.75C1225.32 87.75 1231.32 90 1235.98 94.5C1240.82 98.8333 1243.23 104.333 1243.23 111C1243.23 117.5 1240.82 123 1235.98 127.5C1231.32 131.833 1225.32 134 1217.98 134ZM1239.23 148.5V288H1196.48V148.5H1239.23ZM1332.96 248L1363.21 148.5H1408.71L1359.21 288H1306.46L1256.96 148.5H1302.71L1332.96 248ZM1558.21 216C1558.21 220 1557.96 224.167 1557.46 228.5H1460.71C1461.37 237.167 1464.12 243.833 1468.96 248.5C1473.96 253 1480.04 255.25 1487.21 255.25C1497.87 255.25 1505.29 250.75 1509.46 241.75H1554.96C1552.62 250.917 1548.37 259.167 1542.21 266.5C1536.21 273.833 1528.62 279.583 1519.46 283.75C1510.29 287.917 1500.04 290 1488.71 290C1475.04 290 1462.87 287.083 1452.21 281.25C1441.54 275.417 1433.21 267.083 1427.21 256.25C1421.21 245.417 1418.21 232.75 1418.21 218.25C1418.21 203.75 1421.12 191.083 1426.96 180.25C1432.96 169.417 1441.29 161.083 1451.96 155.25C1462.62 149.417 1474.87 146.5 1488.71 146.5C1502.21 146.5 1514.21 149.333 1524.71 155C1535.21 160.667 1543.37 168.75 1549.21 179.25C1555.21 189.75 1558.21 202 1558.21 216ZM1514.46 204.75C1514.46 197.417 1511.96 191.583 1506.96 187.25C1501.96 182.917 1495.71 180.75 1488.21 180.75C1481.04 180.75 1474.96 182.833 1469.96 187C1465.12 191.167 1462.12 197.083 1460.96 204.75H1514.46Z" fill="#D9D9D9"/>
<defs>
<filter id="filter0_d_647_46" x="0" y="0" width="420.059" height="420" filterUnits="userSpaceOnUse" color-interpolation-filters="sRGB">
<feFlood flood-opacity="0" result="BackgroundImageFix"/>
<feColorMatrix in="SourceAlpha" type="matrix" values="0 0 0 0 0 0 0 0 0 0 0 0 0 0 0 0 0 0 127 0" result="hardAlpha"/>
<feMorphology radius="20" operator="erode" in="SourceAlpha" result="effect1_dropShadow_647_46"/>
<feOffset dx="20" dy="-20"/>
<feGaussianBlur stdDeviation="40"/>
<feComposite in2="hardAlpha" operator="out"/>
<feColorMatrix type="matrix" values="0 0 0 0 0 0 0 0 0 0 0 0 0 0 0 0 0 0 0.25 0"/>
<feBlend mode="normal" in2="BackgroundImageFix" result="effect1_dropShadow_647_46"/>
<feBlend mode="normal" in="SourceGraphic" in2="effect1_dropShadow_647_46" result="shape"/>
</filter>
<filter id="filter1_d_647_46" x="40.0177" y="100" width="360.035" height="360" filterUnits="userSpaceOnUse" color-interpolation-filters="sRGB">
<feFlood flood-opacity="0" result="BackgroundImageFix"/>
<feColorMatrix in="SourceAlpha" type="matrix" values="0 0 0 0 0 0 0 0 0 0 0 0 0 0 0 0 0 0 127 0" result="hardAlpha"/>
<feMorphology radius="10" operator="dilate" in="SourceAlpha" result="effect1_dropShadow_647_46"/>
<feOffset dy="-10"/>
<feGaussianBlur stdDeviation="40"/>
<feComposite in2="hardAlpha" operator="out"/>
<feColorMatrix type="matrix" values="0 0 0 0 0 0 0 0 0 0 0 0 0 0 0 0 0 0 0.25 0"/>
<feBlend mode="normal" in2="BackgroundImageFix" result="effect1_dropShadow_647_46"/>
<feBlend mode="normal" in="SourceGraphic" in2="effect1_dropShadow_647_46" result="shape"/>
</filter>
<linearGradient id="paint0_linear_647_46" x1="271.621" y1="200" x2="168.48" y2="380.018" gradientUnits="userSpaceOnUse">
<stop stop-color="#00FF0A"/>
<stop offset="0.8" stop-color="#00FFC2"/>
</linearGradient>
</defs>
</svg>
