<svg xmlns="http://www.w3.org/2000/svg" viewBox="0 0 512 512" xml:space="preserve"><path d="M384 148.699V128C384 57.422 326.578 0 256 0S128 57.422 128 128v112c0 26.469-21.531 48-48 48-17.672 0-32 14.328-32 32s14.328 32 32 32c61.75 0 112-50.242 112-112V128c0-35.289 28.703-64 64-64s64 28.711 64 64v20.699c-46.25 13.775-80 56.572-80 107.301v144c0 61.855 50.141 112 112 112s112-50.145 112-112V256c0-50.729-33.75-93.525-80-107.301M352 288c-17.672 0-32-14.327-32-32s14.328-32 32-32 32 14.326 32 32c0 17.673-14.328 32-32 32" fill="#202020"/></svg>