<svg xmlns="http://www.w3.org/2000/svg" width="120" height="120" viewBox="0 0 120 120" xml:space="preserve"><defs><linearGradient id="a" x1="0%" y1="0%" x2="400%" y2="400%"><stop offset="0%" style="stop-color:#00ffc2;stop-opacity:1"/><stop offset="100%" style="stop-color:#00ff0a;stop-opacity:1"/></linearGradient></defs><path d="M60 95.5c-19.575 0-35.5-15.926-35.5-35.5 0-19.575 15.925-35.5 35.5-35.5 13.62 0 25.467 7.714 31.418 19h22.627C106.984 20.347 85.462 3.5 60 3.5 28.796 3.5 3.5 28.796 3.5 60c0 31.203 25.296 56.5 56.5 56.5 16.264 0 30.911-6.882 41.221-17.88L85.889 84.255C79.406 91.168 70.201 95.5 60 95.5" fill="url(#a)"/><path fill="none" d="M120 0v45.336M91.418 43.5h22.627"/><path fill="url(#a)" d="m120 21.832-.008 47.01-45.165-13.031z"/></svg>