<svg width="800" height="800" viewBox="0 0 50 50" version="1.2" baseProfile="tiny" xmlns="http://www.w3.org/2000/svg" overflow="inherit"><defs><linearGradient id="a" x1="0%" y1="0%" x2="100%" y2="100%"><stop offset="0%" style="stop-color:#fff;stop-opacity:1"/><stop offset="100%" style="stop-color:gray;stop-opacity:1"/></linearGradient></defs><path d="M35.66 29.539a18.04 18.04 0 0 0 2.632-9.385c0-10.029-8.115-18.15-18.146-18.154C10.124 2.003 2 10.125 2 20.152c0 10.018 8.125 18.139 18.152 18.139 3.44 0 6.645-.972 9.384-2.633L41.879 48 48 41.876zM20.15 31.38c-6.202-.015-11.216-5.027-11.227-11.216A11.245 11.245 0 0 1 20.15 8.935c6.199.016 11.215 5.028 11.228 11.229-.013 6.182-5.031 11.201-11.228 11.216" fill="url(#a)"/></svg>